<svg width="21" height="22" viewBox="0 0 21 22" fill="none" xmlns="http://www.w3.org/2000/svg">
<path d="M2.09524 6.28571H16.7619V4.19048H2.09524V6.28571ZM2.09524 20.9524C1.51905 20.9524 1.02579 20.7472 0.615476 20.3369C0.205159 19.9266 0 19.4333 0 18.8571V4.19048C0 3.61429 0.205159 3.12103 0.615476 2.71071C1.02579 2.3004 1.51905 2.09524 2.09524 2.09524H3.14286V1.04762C3.14286 0.750794 3.24325 0.501984 3.44405 0.30119C3.64484 0.100397 3.89365 0 4.19048 0C4.4873 0 4.73611 0.100397 4.9369 0.30119C5.1377 0.501984 5.2381 0.750794 5.2381 1.04762V2.09524H13.619V1.04762C13.619 0.750794 13.7194 0.501984 13.9202 0.30119C14.121 0.100397 14.3698 0 14.6667 0C14.9635 0 15.2123 0.100397 15.4131 0.30119C15.6139 0.501984 15.7143 0.750794 15.7143 1.04762V2.09524H16.7619C17.3381 2.09524 17.8313 2.3004 18.2417 2.71071C18.652 3.12103 18.8571 3.61429 18.8571 4.19048V10.1357C18.5254 9.97857 18.1849 9.84762 17.8357 9.74286C17.4865 9.6381 17.1286 9.55952 16.7619 9.50714V8.38095H2.09524V18.8571H8.69524C8.81746 19.2413 8.96151 19.6079 9.12738 19.9571C9.29325 20.3063 9.48968 20.6381 9.71667 20.9524H2.09524ZM15.7143 22C14.2651 22 13.0298 21.4893 12.0083 20.4679C10.9869 19.4464 10.4762 18.2111 10.4762 16.7619C10.4762 15.3127 10.9869 14.0774 12.0083 13.056C13.0298 12.0345 14.2651 11.5238 15.7143 11.5238C17.1635 11.5238 18.3988 12.0345 19.4202 13.056C20.4417 14.0774 20.9524 15.3127 20.9524 16.7619C20.9524 18.2111 20.4417 19.4464 19.4202 20.4679C18.3988 21.4893 17.1635 22 15.7143 22ZM16.2381 16.5524V14.1429C16.2381 14.0032 16.1857 13.881 16.081 13.7762C15.9762 13.6714 15.854 13.619 15.7143 13.619C15.5746 13.619 15.4524 13.6714 15.3476 13.7762C15.2429 13.881 15.1905 14.0032 15.1905 14.1429V16.5262C15.1905 16.6659 15.2167 16.8012 15.269 16.9321C15.3214 17.0631 15.4 17.181 15.5048 17.2857L17.1024 18.8833C17.2071 18.9881 17.3294 19.0405 17.469 19.0405C17.6087 19.0405 17.731 18.9881 17.8357 18.8833C17.9405 18.7786 17.9929 18.6563 17.9929 18.5167C17.9929 18.377 17.9405 18.2548 17.8357 18.15L16.2381 16.5524Z" fill="black"/>
</svg>
