<svg width="22" height="22" viewBox="0 0 22 22" fill="none" xmlns="http://www.w3.org/2000/svg">
<path d="M18.607 1.28198L13.4928 11.784C13.248 11.5885 12.9615 11.449 12.6567 11.377L17.7709 0.874962L17.7709 0.87492C17.8833 0.643883 18.1616 0.547956 18.3924 0.660396L18.3925 0.660425C18.6235 0.772881 18.7195 1.05112 18.607 1.28196L18.607 1.28198Z" stroke="black" stroke-width="0.5"/>
<path d="M13.0066 21.8553C12.9938 21.8553 12.981 21.8543 12.9679 21.8521C7.95977 21.0405 4.28559 19.2451 2.34309 16.6598C2.29213 16.5921 2.28054 16.5028 2.31242 16.4241C2.34429 16.3453 2.41481 16.2893 2.4986 16.2763C4.29138 15.9928 5.77868 15.4395 8.93199 13.201C9.00395 13.1495 9.09813 13.142 9.17758 13.1807L14.2183 15.6354C14.2999 15.6752 14.3523 15.7571 14.3543 15.8476C14.4081 18.4559 14.001 20.551 13.2084 21.7473C13.1626 21.8154 13.0867 21.8553 13.0066 21.8553ZM2.97747 16.6839C4.88085 18.9737 8.29302 20.5817 12.8877 21.3494C13.5581 20.2361 13.9061 18.3518 13.8732 16.0048L9.09426 13.6774C6.17496 15.7385 4.65192 16.3702 2.97747 16.6839Z" fill="black"/>
<path d="M14.1123 16.0936C14.0763 16.0936 14.0401 16.0857 14.0065 16.0692L8.96577 13.6148C8.8897 13.5776 8.8385 13.5032 8.83102 13.4185C8.82353 13.334 8.8612 13.2521 8.92978 13.2021L10.9619 11.7274C11.5946 11.2688 12.3917 11.1987 13.0942 11.5409C13.7967 11.8831 14.2333 12.5535 14.2618 13.3347L14.3538 15.8437C14.3569 15.9287 14.3154 16.0089 14.2444 16.055C14.2043 16.0806 14.1582 16.0936 14.1123 16.0936ZM9.53905 13.3564L13.8563 15.4588L13.7793 13.3518C13.7573 12.7522 13.4221 12.2374 12.8826 11.9746C12.3436 11.7119 11.731 11.7658 11.2456 12.1181L9.53905 13.3564Z" fill="black"/>
<path fill-rule="evenodd" clip-rule="evenodd" d="M13.0067 21.6125C13.7524 20.4869 14.1663 18.4715 14.1124 15.8512L9.07167 13.3965C5.80777 15.7135 4.29438 16.2356 2.53638 16.5136C3.23028 17.4371 4.14919 18.2632 5.29013 18.9793C5.31727 18.9354 5.35865 18.8999 5.41074 18.8804C6.53485 18.46 7.46263 17.7184 8.16849 16.6764C8.24311 16.5663 8.39307 16.537 8.50391 16.6117C8.61451 16.6865 8.64325 16.8367 8.56863 16.9471C7.84371 18.0175 6.89999 18.7954 5.76149 19.2617C6.84307 19.88 8.10456 20.4076 9.54379 20.8352C9.55785 20.7879 9.58646 20.7445 9.62864 20.7124C10.1401 20.3221 10.5303 19.3777 10.7882 17.9049C10.8112 17.7735 10.9368 17.6863 11.0676 17.7085C11.199 17.7317 11.2869 17.8568 11.264 17.9882C11.0018 19.4861 10.606 20.4685 10.0571 20.9813C10.9726 21.2311 11.956 21.4422 13.0067 21.6125Z" fill="black"/>
<path d="M14.1123 16.0936C14.0763 16.0936 14.0401 16.0857 14.0065 16.0692L8.96577 13.6148C8.8897 13.5776 8.8385 13.5032 8.83102 13.4185C8.82353 13.334 8.8612 13.2521 8.92978 13.2021L10.9619 11.7274C11.5946 11.2688 12.3917 11.1987 13.0942 11.5409C13.7967 11.8831 14.2333 12.5535 14.2618 13.3347L14.3538 15.8437C14.3569 15.9287 14.3154 16.0089 14.2444 16.055C14.2043 16.0806 14.1582 16.0936 14.1123 16.0936ZM9.53905 13.3564L13.8563 15.4588L13.7793 13.3518C13.7573 12.7522 13.4221 12.2374 12.8826 11.9746C12.3436 11.7119 11.731 11.7658 11.2456 12.1181L9.53905 13.3564Z" fill="black"/>
<path d="M16.6892 17.6491C16.1736 17.6491 15.7542 17.2299 15.7542 16.7143C15.7542 16.1988 16.1736 15.7793 16.6892 15.7793C17.2047 15.7793 17.6242 16.1988 17.6242 16.7143C17.6242 17.2299 17.2047 17.6491 16.6892 17.6491ZM16.6892 16.2623C16.44 16.2623 16.2371 16.4651 16.2371 16.7143C16.2371 16.9633 16.44 17.1661 16.6892 17.1661C16.9384 17.1661 17.1412 16.9633 17.1412 16.7143C17.1412 16.4649 16.9384 16.2623 16.6892 16.2623Z" fill="black"/>
<path d="M16.7504 21.8539C15.988 21.8539 15.3674 21.2335 15.3674 20.4709C15.3674 19.7083 15.9878 19.0879 16.7504 19.0879C17.513 19.0879 18.1334 19.7083 18.1334 20.4709C18.1334 21.2335 17.5128 21.8539 16.7504 21.8539ZM16.7504 19.5711C16.2542 19.5711 15.8504 19.9749 15.8504 20.4711C15.8504 20.9674 16.2542 21.3709 16.7504 21.3709C17.2467 21.3709 17.6504 20.9671 17.6504 20.4709C17.6504 19.9746 17.2467 19.5711 16.7504 19.5711Z" fill="black"/>
<path d="M19.4395 18.6011C19.374 18.6011 19.3137 18.5767 19.268 18.5311C19.2463 18.5067 19.227 18.4804 19.2147 18.4514C19.2026 18.4224 19.198 18.391 19.198 18.3596C19.198 18.2966 19.2221 18.2338 19.268 18.1879C19.3574 18.0988 19.5216 18.0988 19.6085 18.1879C19.6327 18.2123 19.6496 18.2362 19.6616 18.2676C19.6737 18.2966 19.681 18.328 19.681 18.3596C19.681 18.391 19.6737 18.4224 19.6616 18.4514C19.6496 18.4804 19.6327 18.5067 19.6085 18.5311C19.5865 18.5528 19.5602 18.5695 19.5312 18.5818C19.5023 18.5939 19.4709 18.6011 19.4395 18.6011Z" fill="black"/>
</svg>
