<svg width="20" height="22" viewBox="0 0 20 22" fill="none" xmlns="http://www.w3.org/2000/svg">
<path d="M16.5 2.2H15.4V1.1C15.4 0.808262 15.2841 0.528473 15.0778 0.322182C14.8715 0.115892 14.5917 0 14.3 0C14.0083 0 13.7285 0.115892 13.5222 0.322182C13.3159 0.528473 13.2 0.808262 13.2 1.1V2.2H6.6V1.1C6.6 0.808262 6.48411 0.528473 6.27782 0.322182C6.07153 0.115892 5.79174 0 5.5 0C5.20826 0 4.92847 0.115892 4.72218 0.322182C4.51589 0.528473 4.4 0.808262 4.4 1.1V2.2H3.3C2.42479 2.2 1.58542 2.54768 0.966548 3.16655C0.347678 3.78542 0 4.62479 0 5.5V18.7C0 19.5752 0.347678 20.4146 0.966548 21.0335C1.58542 21.6523 2.42479 22 3.3 22H16.5C17.3752 22 18.2146 21.6523 18.8335 21.0335C19.4523 20.4146 19.8 19.5752 19.8 18.7V5.5C19.8 4.62479 19.4523 3.78542 18.8335 3.16655C18.2146 2.54768 17.3752 2.2 16.5 2.2ZM5.5 16.5C5.28244 16.5 5.06977 16.4355 4.88887 16.3146C4.70798 16.1937 4.56699 16.022 4.48373 15.821C4.40048 15.62 4.37869 15.3988 4.42114 15.1854C4.46358 14.972 4.56834 14.776 4.72218 14.6222C4.87602 14.4683 5.07202 14.3636 5.2854 14.3211C5.49878 14.2787 5.71995 14.3005 5.92095 14.3837C6.12195 14.467 6.29375 14.608 6.41462 14.7889C6.53549 14.9698 6.6 15.1824 6.6 15.4C6.6 15.6917 6.48411 15.9715 6.27782 16.1778C6.07153 16.3841 5.79174 16.5 5.5 16.5ZM14.3 16.5H9.9C9.60826 16.5 9.32847 16.3841 9.12218 16.1778C8.91589 15.9715 8.8 15.6917 8.8 15.4C8.8 15.1083 8.91589 14.8285 9.12218 14.6222C9.32847 14.4159 9.60826 14.3 9.9 14.3H14.3C14.5917 14.3 14.8715 14.4159 15.0778 14.6222C15.2841 14.8285 15.4 15.1083 15.4 15.4C15.4 15.6917 15.2841 15.9715 15.0778 16.1778C14.8715 16.3841 14.5917 16.5 14.3 16.5ZM17.6 9.9H2.2V5.5C2.2 5.20826 2.31589 4.92847 2.52218 4.72218C2.72847 4.51589 3.00826 4.4 3.3 4.4H4.4V5.5C4.4 5.79174 4.51589 6.07153 4.72218 6.27782C4.92847 6.48411 5.20826 6.6 5.5 6.6C5.79174 6.6 6.07153 6.48411 6.27782 6.27782C6.48411 6.07153 6.6 5.79174 6.6 5.5V4.4H13.2V5.5C13.2 5.79174 13.3159 6.07153 13.5222 6.27782C13.7285 6.48411 14.0083 6.6 14.3 6.6C14.5917 6.6 14.8715 6.48411 15.0778 6.27782C15.2841 6.07153 15.4 5.79174 15.4 5.5V4.4H16.5C16.7917 4.4 17.0715 4.51589 17.2778 4.72218C17.4841 4.92847 17.6 5.20826 17.6 5.5V9.9Z" fill="black"/>
</svg>
