<svg width="22" height="22" viewBox="0 0 22 22" fill="none" xmlns="http://www.w3.org/2000/svg">
<path fill-rule="evenodd" clip-rule="evenodd" d="M11 22C17.0751 22 22 17.0751 22 11C22 4.92487 17.0751 0 11 0C4.92487 0 0 4.92487 0 11C0 17.0751 4.92487 22 11 22ZM8.91667 8.29167C8.91667 9.08333 9.525 9.59167 11.4167 10.0833C13.3083 10.575 15.3333 11.3833 15.3333 13.75C15.3333 15.4583 14.0417 16.4 12.4167 16.7083V17.25C12.4167 17.9417 11.8583 18.5 11.1667 18.5C10.475 18.5 9.91667 17.9417 9.91667 17.25V16.6917C8.66667 16.425 7.55833 15.7417 7.08333 14.5833C6.875 14.0667 7.26667 13.5 7.825 13.5H8.05833C8.4 13.5 8.68333 13.7333 8.80833 14.0583C9.08333 14.7583 9.79167 15.25 11.1667 15.25C13.0083 15.25 13.4167 14.3333 13.4167 13.7583C13.4167 12.9833 13 12.25 10.9167 11.75C8.59167 11.1917 7 10.2333 7 8.30833C7 6.7 8.3 5.65 9.91667 5.3V4.75C9.91667 4.05833 10.475 3.5 11.1667 3.5C11.8583 3.5 12.4167 4.05833 12.4167 4.75V5.325C13.7167 5.64167 14.5333 6.45833 14.8833 7.44167C15.075 7.95833 14.6833 8.5 14.1333 8.5H13.8833C13.5333 8.5 13.2583 8.25 13.1583 7.91667C12.9417 7.2 12.35 6.75 11.1667 6.75C9.75833 6.75 8.91667 7.38333 8.91667 8.29167Z" fill="black"/>
</svg>
