<svg width="23" height="22" viewBox="0 0 23 22" fill="none" xmlns="http://www.w3.org/2000/svg">
<path d="M18.7416 3.23651C16.9426 1.42584 14.5683 0.299539 12.028 0.0517894C9.48769 -0.195961 6.94051 0.450363 4.82564 1.87933C2.71076 3.3083 1.16072 5.43037 0.442727 7.87969C-0.275261 10.329 -0.116195 12.9521 0.892501 15.2967C0.997634 15.5146 1.03213 15.7599 0.991176 15.9984L0.0263613 20.6361C-0.0108101 20.8139 -0.00321967 20.9981 0.0484507 21.1723C0.100121 21.3464 0.194252 21.505 0.322384 21.6338C0.427422 21.738 0.552486 21.82 0.690037 21.8746C0.827589 21.9293 0.974781 21.9555 1.12274 21.9517H1.34202L6.03452 21.0088C6.27302 20.9801 6.51487 21.0142 6.73621 21.1075C9.08081 22.1162 11.7039 22.2753 14.1532 21.5573C16.6025 20.8393 18.7246 19.2892 20.1536 17.1744C21.5825 15.0595 22.2289 12.5123 21.9811 9.97198C21.7334 7.43165 20.6071 5.05736 18.7964 3.25844L18.7416 3.23651ZM6.60464 12.0843C6.3878 12.0843 6.17582 12.02 5.99552 11.8995C5.81523 11.779 5.6747 11.6078 5.59172 11.4075C5.50873 11.2071 5.48702 10.9867 5.52933 10.774C5.57163 10.5613 5.67605 10.366 5.82938 10.2127C5.98271 10.0593 6.17807 9.9549 6.39075 9.9126C6.60342 9.8703 6.82387 9.89201 7.02421 9.97499C7.22454 10.058 7.39577 10.1985 7.51625 10.3788C7.63672 10.5591 7.70102 10.7711 7.70102 10.9879C7.70102 11.2787 7.58551 11.5576 7.3799 11.7632C7.17429 11.9688 6.89542 12.0843 6.60464 12.0843ZM10.9902 12.0843C10.7733 12.0843 10.5613 12.02 10.381 11.8995C10.2007 11.779 10.0602 11.6078 9.97724 11.4075C9.89425 11.2071 9.87254 10.9867 9.91485 10.774C9.95715 10.5613 10.0616 10.366 10.2149 10.2127C10.3682 10.0593 10.5636 9.9549 10.7763 9.9126C10.9889 9.8703 11.2094 9.89201 11.4097 9.97499C11.6101 10.058 11.7813 10.1985 11.9018 10.3788C12.0222 10.5591 12.0865 10.7711 12.0865 10.9879C12.0865 11.2787 11.971 11.5576 11.7654 11.7632C11.5598 11.9688 11.2809 12.0843 10.9902 12.0843ZM15.3757 12.0843C15.1588 12.0843 14.9469 12.02 14.7666 11.8995C14.5863 11.779 14.4457 11.6078 14.3628 11.4075C14.2798 11.2071 14.2581 10.9867 14.3004 10.774C14.3427 10.5613 14.4471 10.366 14.6004 10.2127C14.7538 10.0593 14.9491 9.9549 15.1618 9.9126C15.3745 9.8703 15.5949 9.89201 15.7952 9.97499C15.9956 10.058 16.1668 10.1985 16.2873 10.3788C16.4078 10.5591 16.4721 10.7711 16.4721 10.9879C16.4721 11.2787 16.3565 11.5576 16.1509 11.7632C15.9453 11.9688 15.6665 12.0843 15.3757 12.0843Z" fill="black"/>
</svg>
