<svg width="18" height="22" viewBox="0 0 18 22" fill="none" xmlns="http://www.w3.org/2000/svg">
<path d="M9.00146 22C10.3066 22 11.3745 20.9846 11.3745 19.7436H6.62843C6.62843 20.9846 7.68443 22 9.00146 22ZM16.1205 15.2308V9.58974C16.1205 6.12615 14.1747 3.22667 10.7812 2.45949V1.69231C10.7812 0.755897 9.98627 0 9.00146 0C8.01666 0 7.22169 0.755897 7.22169 1.69231V2.45949C3.8164 3.22667 1.88238 6.11487 1.88238 9.58974V15.2308L0.351774 16.6862C-0.395729 17.3969 0.126337 18.6154 1.18233 18.6154H16.8087C17.8647 18.6154 18.3987 17.3969 17.6512 16.6862L16.1205 15.2308Z" fill="black"/>
</svg>
