<svg width="27" height="30" viewBox="0 0 27 30" fill="none" xmlns="http://www.w3.org/2000/svg">
<path fill-rule="evenodd" clip-rule="evenodd" d="M11.7448 7.06055H20.179C24.7069 7.06055 26.4118 9.36029 26.1486 12.7446C25.7145 18.3236 22.3526 21.4085 17.8934 21.4085H15.6421C15.0309 21.4085 14.6197 21.8138 14.4534 22.9154L13.4875 29.3111C13.4248 29.7265 13.207 29.9705 12.8798 30H7.5913C7.09368 30 6.91664 29.618 7.0469 28.7908L10.2765 8.27423C10.4059 7.45203 10.8542 7.06055 11.7448 7.06055Z" fill="#009DE2"/>
<path fill-rule="evenodd" clip-rule="evenodd" d="M6.47221 0H14.9148C17.2926 0 20.1127 0.07745 21.9994 1.74688C23.2596 2.86209 23.921 4.63887 23.7683 6.54633C23.2506 13.0145 19.3944 16.6372 14.2235 16.6372H10.0596C9.3509 16.6372 8.88113 17.1084 8.68125 18.3845L7.51932 25.8006C7.44398 26.2818 7.23608 26.5653 6.85659 26.5995H1.65593C1.07884 26.5995 0.873666 26.1566 1.02467 25.1973L4.76959 1.40733C4.91966 0.45395 5.43941 0 6.47221 0Z" fill="#113984"/>
</svg>
