<svg width="50" height="34" viewBox="0 0 50 34" fill="none" xmlns="http://www.w3.org/2000/svg">
<rect x="0.5" y="0.200012" width="49" height="33.6" rx="4.2" fill="white"/>
<rect x="1" y="0.700012" width="48" height="32.6" rx="3.7" stroke="#CCD2E3" stroke-opacity="0.31"/>
<path fill-rule="evenodd" clip-rule="evenodd" d="M15.3761 22.9616H12.4077L10.1817 14.4693C10.0761 14.0787 9.85173 13.7333 9.52174 13.5706C8.69822 13.1615 7.79075 12.836 6.80078 12.6718V12.3449H11.5827C12.2427 12.3449 12.7377 12.836 12.8202 13.4064L13.9751 19.5321L16.9421 12.3449H19.8281L15.3761 22.9616ZM21.4781 22.9616H18.6746L20.9831 12.3449H23.7866L21.4781 22.9616ZM27.4134 15.286C27.4959 14.7142 27.9909 14.3872 28.5684 14.3872C29.4758 14.3052 30.4644 14.4693 31.2893 14.877L31.7843 12.5911C30.9593 12.2642 30.0519 12.1 29.2284 12.1C26.5074 12.1 24.5275 13.5706 24.5275 15.6115C24.5275 17.1642 25.9299 17.9795 26.9199 18.4706C27.9909 18.9603 28.4034 19.2873 28.3209 19.777C28.3209 20.5116 27.4959 20.8385 26.6724 20.8385C25.6824 20.8385 24.6925 20.5936 23.7864 20.1846L23.2915 22.4718C24.2814 22.8795 25.3524 23.0437 26.3424 23.0437C29.3934 23.1243 31.2893 21.6552 31.2893 19.45C31.2893 16.6731 27.4134 16.5103 27.4134 15.286ZM41.1008 22.9616L38.8749 12.3449H36.4839C35.9889 12.3449 35.4939 12.6718 35.3289 13.1615L31.207 22.9616H34.0929L34.6689 21.4103H38.2149L38.5449 22.9616H41.1008ZM36.8963 15.2039L37.7199 19.2052H35.4114L36.8963 15.2039Z" fill="#172B85"/>
</svg>
